<svg width="500" height="500" viewBox="0 0 500 500" fill="none" xmlns="http://www.w3.org/2000/svg">
<path d="M134 400C245.069 400 355.823 400 467 400" stroke="#101F32" stroke-width="2.2405" stroke-miterlimit="10" stroke-linecap="round" stroke-linejoin="round"/>
<path d="M33 400C56.0143 400 78.9634 400 102 400" stroke="#101F32" stroke-width="2.2405" stroke-miterlimit="10" stroke-linecap="round" stroke-linejoin="round"/>
<path d="M405.958 334C399.908 334 394.958 328.983 394.958 322.852V280.148C394.958 274.017 399.908 269 405.958 269C412.008 269 416.958 274.017 416.958 280.148V322.852C416.958 328.983 412.008 334 405.958 334Z" fill="#8BACD6"/>
<path d="M368.995 204.147C369.006 205.488 368.99 206.826 368.955 208.158C368.939 208.712 368.915 209.27 368.891 209.823C368.887 209.946 368.879 210.073 368.871 210.199C368.851 210.686 368.824 211.176 368.792 211.658C368.78 211.88 368.764 212.098 368.748 212.319C368.736 212.524 368.72 212.73 368.704 212.932C368.586 214.554 368.428 216.168 368.234 217.774C368.158 218.402 368.076 219.032 367.988 219.657C367.897 220.306 367.803 220.951 367.7 221.599C367.605 222.189 367.506 222.778 367.403 223.368C367.336 223.752 367.265 224.131 367.193 224.515C367.094 225.049 366.991 225.579 366.885 226.105C366.869 226.173 366.853 226.244 366.841 226.319C366.735 226.838 366.624 227.355 366.505 227.874C366.275 228.906 366.03 229.939 365.773 230.963C365.63 231.517 365.488 232.063 365.338 232.613C365.16 233.262 364.978 233.91 364.789 234.559C364.615 235.16 364.437 235.758 364.247 236.351C364.061 236.952 363.867 237.554 363.665 238.159C363.51 238.629 363.349 239.1 363.187 239.571C363.136 239.717 363.084 239.864 363.032 240.006C362.498 241.52 361.928 243.02 361.323 244.503C361.224 244.756 361.121 245.01 361.015 245.259C360.058 247.562 359.022 249.825 357.91 252.047C357.7 252.467 357.487 252.886 357.27 253.301C357.076 253.68 356.877 254.057 356.676 254.428C356.53 254.697 356.383 254.97 356.237 255.243C355.984 255.706 355.73 256.165 355.469 256.62C355.394 256.754 355.319 256.889 355.24 257.027C354.963 257.509 354.686 257.989 354.405 258.463C354.246 258.728 354.088 258.993 353.926 259.258C353.768 259.523 353.61 259.784 353.448 260.045C353.286 260.31 353.123 260.571 352.957 260.832C352.629 261.35 352.297 261.868 351.96 262.387C351.624 262.901 351.284 263.411 350.936 263.921C350.592 264.432 350.24 264.939 349.888 265.441C349.532 265.943 349.175 266.441 348.812 266.94C348.088 267.929 347.345 268.91 346.585 269.875C346.206 270.357 345.822 270.836 345.434 271.315C345.051 271.785 344.663 272.252 344.275 272.715C343.477 273.657 342.665 274.587 341.835 275.5C341.423 275.955 341.008 276.406 340.588 276.853C340.228 277.237 339.864 277.621 339.5 277.996C338.159 279.381 336.783 280.734 335.366 282.043C334.547 282.806 333.717 283.55 332.87 284.282C331.861 285.16 330.836 286.019 329.796 286.857C328.854 287.617 327.901 288.36 326.932 289.085C326.912 289.1 326.892 289.113 326.873 289.128C326.382 289.492 325.892 289.856 325.397 290.212C324.898 290.572 324.396 290.928 323.889 291.28C323.387 291.632 322.877 291.98 322.367 292.321C321.366 292.993 320.357 293.646 319.332 294.278C319.301 294.298 319.269 294.317 319.238 294.337C318.719 294.658 318.202 294.974 317.675 295.287C317.145 295.604 316.611 295.916 316.076 296.221C315.554 296.522 315.032 296.814 314.506 297.107C314.486 297.115 314.467 297.122 314.451 297.134C313.908 297.431 313.367 297.719 312.821 298.008C312.275 298.297 311.721 298.582 311.167 298.859C310.059 299.42 308.944 299.959 307.813 300.477C307.738 300.517 307.663 300.548 307.587 300.583C299.889 304.104 294.897 311.73 294.968 320.196L294.976 321.319L295.254 353.61C295.305 359.889 293.402 365.75 290.115 370.612C289.843 371.011 289.566 371.403 289.277 371.791C286.274 375.802 282.295 379.05 277.694 381.162C273.433 383.128 268.642 384.117 263.607 383.853C263.258 383.833 262.911 383.809 262.559 383.782C262.531 383.778 262.503 383.773 262.471 383.773C261.941 383.726 261.412 383.662 260.881 383.588C258.991 383.319 257.167 382.872 255.426 382.262C254.821 382.053 254.228 381.827 253.642 381.578C252.82 381.226 252.012 380.839 251.23 380.419C248.678 379.051 246.36 377.314 244.331 375.289C240.816 371.793 238.157 367.43 236.641 362.601C236.639 362.591 236.635 362.582 236.632 362.572C236.509 362.177 236.389 361.778 236.281 361.376C236.206 361.095 236.131 360.81 236.064 360.525C235.993 360.241 235.929 359.956 235.87 359.671C235.866 359.659 235.866 359.647 235.862 359.639C235.803 359.363 235.747 359.082 235.7 358.804C235.656 358.57 235.617 358.341 235.581 358.108C235.557 357.97 235.533 357.835 235.518 357.697C235.486 357.483 235.459 357.266 235.431 357.052C235.395 356.783 235.367 356.518 235.34 356.249C235.335 356.181 235.328 356.114 235.324 356.051C235.3 355.826 235.284 355.6 235.269 355.371C235.26 355.283 235.257 355.197 235.253 355.11C235.238 354.924 235.23 354.734 235.221 354.544C235.218 354.468 235.213 354.394 235.213 354.318C235.201 354.037 235.198 353.757 235.193 353.471L235.062 338.284L234.948 324.621C234.948 324.387 234.939 324.15 234.932 323.917C234.908 323.216 234.861 322.52 234.782 321.828C233.761 312.496 228.042 304.193 219.433 300.158C212.344 296.836 205.69 292.745 199.571 287.986C174.698 268.67 158.72 238.401 158.933 204.337C158.961 199.823 159.282 195.373 159.871 191.001C164.792 154.624 188.606 123.86 221.107 109.199C221.843 108.867 222.587 108.542 223.331 108.226C226.519 106.876 229.783 105.682 233.117 104.646C233.798 104.436 234.478 104.235 235.166 104.036C235.976 103.802 236.792 103.581 237.607 103.368C238.426 103.154 239.244 102.948 240.071 102.754C240.906 102.561 241.744 102.375 242.583 102.197C243.351 102.038 244.122 101.885 244.893 101.742C245.914 101.552 246.942 101.378 247.971 101.22C248.276 101.176 248.576 101.129 248.881 101.085C249.731 100.962 250.582 100.847 251.436 100.745C253.545 100.492 255.668 100.302 257.813 100.179C258.71 100.127 259.612 100.084 260.515 100.056C319.678 98.1473 368.496 145.288 368.995 204.147Z" fill="#B9F88D"/>
<path d="M230.434 148.828C233.032 153.295 236.318 157.112 240.084 160.624C243.894 164.177 248.463 166.563 253.261 168.507C262.083 172.079 271.814 174.353 279.264 180.598C286.516 186.679 290.512 196.293 290.87 205.632C291.231 215.06 288.327 224.272 285.347 233.099C279.379 250.77 270.928 273.031 286.001 288.663C291.72 294.594 299.5 298.613 307.815 300.48C344.218 283.735 369.357 246.814 368.996 204.148C368.497 145.289 319.679 98.1493 260.513 100.06C246.523 100.512 233.212 103.74 221.106 109.202C221.255 123.06 223.53 136.958 230.434 148.828Z" fill="#D0FBB3"/>
<path d="M266.718 400.088C260.592 400.14 255.538 395.17 255.486 389.045L255.337 371.459C255.285 365.333 260.254 360.279 266.38 360.227C272.506 360.175 277.56 365.144 277.612 371.271L277.761 388.856C277.813 394.983 272.843 400.036 266.718 400.088Z" fill="#101F32"/>
<path d="M234.768 321.833C234.87 322.755 234.942 323.685 234.95 324.625L235.194 353.475C235.32 368.414 246.09 381.487 260.881 383.588C279.433 386.222 295.406 371.639 295.253 353.614L294.979 321.323L234.768 321.833Z" fill="#D8E3F1"/>
<path d="M258.458 360.715C265.13 348.45 268.551 335.167 269.455 321.54L234.768 321.833C234.87 322.755 234.942 323.684 234.95 324.625L235.194 353.475C235.276 363.13 239.82 371.986 247.005 377.624C251.3 372.344 255.181 366.737 258.458 360.715Z" fill="#8BACD6"/>
<path d="M233.676 338.272L293.425 338.902" stroke="#101F32" stroke-width="2.0227" stroke-miterlimit="10" stroke-linecap="round" stroke-linejoin="round"/>
<path d="M379.25 367.042C381.304 364.988 381.304 361.658 379.25 359.604C377.196 357.551 373.867 357.551 371.813 359.604C369.759 361.658 369.759 364.988 371.813 367.042C373.867 369.095 377.196 369.095 379.25 367.042Z" fill="#8BACD6"/>
<path d="M411.231 346.013C411.896 343.186 410.143 340.354 407.316 339.689C404.489 339.024 401.658 340.777 400.993 343.604C400.328 346.431 402.08 349.262 404.908 349.927C407.735 350.593 410.566 348.84 411.231 346.013Z" fill="#8BACD6"/>
<path d="M213.761 305L176.154 318.338L175.623 357.069L212.867 367.659L236.447 335.476L232.229 329.809L207.949 347.882L193.701 328.741L217.981 310.668L213.761 305Z" fill="#101F32"/>
<path d="M186.302 335.936L199.136 353.176L133.336 402.155L120.502 384.915L186.302 335.936Z" fill="#101F32"/>
<path d="M182.234 352.579C183.567 354.374 183.116 356.97 181.225 358.379L134.605 393.118C132.715 394.527 130.101 394.214 128.767 392.42C127.433 390.626 127.884 388.029 129.774 386.621L176.394 351.882C178.285 350.473 180.899 350.785 182.234 352.579Z" stroke="#D8E3F1" stroke-width="2" stroke-miterlimit="10" stroke-linecap="round" stroke-linejoin="round"/>
<path d="M107.995 416.869C114.999 421.295 124.524 421.143 131.92 415.685C141.409 408.68 143.722 395.709 137.088 386.711C130.453 377.713 117.382 376.097 107.892 383.101C100.623 388.467 97.6069 397.319 99.5568 405.22L119.414 390.563C120.509 389.754 122.017 389.94 122.782 390.979L128.547 398.796C129.313 399.833 129.046 401.33 127.95 402.138L107.995 416.869Z" fill="#101F32"/>
<path d="M197.775 327.5L207.886 310H228.115L238.225 327.5L228.115 345H207.886L197.775 327.5Z" stroke="#8AF441" stroke-width="10"/>
<path d="M226.5 313H209.5L201 327.5L209.5 342H226.5L235 327.5L226.5 313Z" fill="#E8FDD9"/>
<path d="M224.794 329.18C225.752 325.139 223.253 321.087 219.212 320.13C215.171 319.172 211.119 321.671 210.161 325.712C209.204 329.753 211.703 333.805 215.744 334.763C219.785 335.72 223.837 333.221 224.794 329.18Z" stroke="#101F32" stroke-width="0.9199" stroke-miterlimit="10" stroke-linecap="round" stroke-linejoin="round"/>
<path d="M176.666 169.386L59.5153 220.116C55.8724 221.695 51.5997 220.003 50.0232 216.36C48.4447 212.718 50.1359 208.445 53.7788 206.868L170.929 156.138C174.572 154.561 178.845 156.251 180.421 159.893C181.998 163.536 180.308 167.807 176.666 169.386Z" fill="#101F32"/>
<path d="M103.941 185.145L53.7765 206.869C50.1336 208.447 48.4444 212.718 50.0209 216.361C51.5994 220.004 55.8701 221.695 59.5131 220.116L110.302 198.123C108.249 193.778 106.113 189.457 103.941 185.145Z" fill="#3E74BA"/>
<path opacity="0.73" d="M307.508 153.776C298.56 189.725 262.168 211.629 226.217 202.681C190.268 193.734 168.39 157.326 177.337 121.377C186.285 85.4281 222.673 63.5435 258.622 72.4913C294.573 81.4392 316.456 117.827 307.508 153.776Z" fill="#B2C7E3"/>
<path d="M225.133 207.045C186.838 197.514 163.441 158.595 172.974 120.29C182.505 81.995 221.415 58.5961 259.71 68.1271C298.005 77.6582 321.404 116.568 311.873 154.863C302.338 193.168 263.427 216.576 225.133 207.045ZM257.539 76.8553C224.056 68.5217 190.038 88.9815 181.704 122.464C173.369 155.955 193.825 189.984 227.307 198.317C260.789 206.651 294.809 186.183 303.147 152.69C311.478 119.209 291.019 85.1889 257.539 76.8553Z" fill="#101F32"/>
<path d="M49.8321 199.995L127.816 166.672C127.867 167.615 139.468 193.813 139.122 193.17L61.0777 226.736C53.7511 229.867 45.2251 226.411 42.1323 219.057C39.0395 211.705 42.5036 203.125 49.8321 199.995Z" fill="#101F32"/>
<path d="M49.8321 199.995L106.589 175.745C109.921 184.774 113.433 193.739 117.064 202.656L61.0777 226.736C53.7511 229.867 45.2251 226.411 42.1323 219.057C39.0395 211.703 42.5036 203.125 49.8321 199.995Z" fill="#8AF441"/>
<path d="M195.091 136.609C195.091 136.609 191.594 99.1172 234.638 93.8005" stroke="white" stroke-width="3.9134" stroke-miterlimit="10" stroke-linecap="round" stroke-linejoin="round"/>
<path d="M415.496 373.111C417.538 365.927 413.369 358.449 406.186 356.407C399.002 354.365 391.523 358.533 389.482 365.717C387.44 372.901 391.608 380.379 398.792 382.421C405.975 384.463 413.454 380.295 415.496 373.111Z" fill="#8BACD6"/>
<path d="M399.421 361.803C395.592 361.373 392.141 365.177 392.245 368.582" stroke="white" stroke-width="2" stroke-miterlimit="10" stroke-linecap="round" stroke-linejoin="round"/>
<path d="M388.958 332.039H388.888V290.32C388.888 284.094 383.748 279 377.466 279C371.183 279 366.043 284.094 366.043 290.32V290.973H345.958C346.123 295.711 346.561 301.038 350.211 304.103C353.32 306.713 357.9 306.87 361.233 309.193C363.608 310.847 365.149 313.497 365.884 316.28C365.945 316.508 365.992 316.739 366.043 316.968V333.68C366.043 339.906 371.183 345 377.466 345C383.748 345 388.888 339.906 388.888 333.68V332.047C388.911 332.045 388.937 332.043 388.958 332.039Z" fill="#8BACD6"/>
<path d="M422.373 254.385L422.267 237.683C422.166 221.851 399.749 209.041 372.45 209.216C345.152 209.39 322.9 222.486 323 238.317L323.107 255.019L422.373 254.385Z" fill="#8AF441"/>
<path d="M323.374 301.929L422.666 301.294L422.364 254.207L323.073 254.843L323.374 301.929Z" fill="#101F32"/>
<path d="M405.766 244.541L406.123 300.689" stroke="#D8E3F1" stroke-width="1.8011" stroke-miterlimit="10"/>
<path d="M397.193 245.662L397.552 301.809" stroke="#D8E3F1" stroke-width="1.8011" stroke-miterlimit="10"/>
<path d="M388.617 246.072L388.975 302.22" stroke="#D8E3F1" stroke-width="1.8011" stroke-miterlimit="10"/>
<path d="M422.275 237.682L323.006 238.318L323.113 255.064L422.382 254.428L422.275 237.682Z" fill="#2A5081"/>
<path d="M380.795 222.3C376.191 212.988 375.669 199.309 380.584 189.322L365.03 189.836C372.37 200.699 367.287 218.445 363.989 221.578L380.795 222.3Z" fill="#8AF441"/>
<path d="M372.962 197.474C379.246 197.402 384.192 184.506 384.01 168.672C383.828 152.837 378.586 140.059 372.303 140.131C366.019 140.203 361.073 153.098 361.255 168.933C361.437 184.768 366.679 197.546 372.962 197.474Z" fill="#8AF441"/>
<path d="M373.808 151.622C373.622 154.345 372.688 156.499 371.722 156.433C370.756 156.367 370.123 154.106 370.309 151.383C370.495 148.659 371.429 146.506 372.395 146.571C373.362 146.637 373.994 148.899 373.808 151.622Z" fill="#1A3354"/>
<path d="M144.717 284.589L149.495 282.388C151.554 283.728 153.842 284.749 156.29 285.379L157.896 290.385C157.953 290.561 158.114 290.681 158.299 290.685L164.607 290.821C164.792 290.825 164.958 290.712 165.022 290.539L166.843 285.607C169.317 285.084 171.646 284.162 173.761 282.912L178.439 285.318C178.603 285.402 178.803 285.374 178.936 285.246L183.493 280.881C183.626 280.754 183.664 280.556 183.587 280.388L181.386 275.61C182.726 273.551 183.747 271.264 184.377 268.815L189.383 267.209C189.558 267.152 189.679 266.991 189.683 266.807L189.819 260.498C189.823 260.314 189.71 260.147 189.537 260.083L184.605 258.262C184.082 255.789 183.16 253.459 181.91 251.344L184.316 246.666C184.401 246.502 184.372 246.302 184.244 246.169L179.88 241.612C179.752 241.478 179.554 241.441 179.386 241.518L174.608 243.719C172.549 242.379 170.262 241.358 167.813 240.728L166.207 235.722C166.151 235.547 165.989 235.426 165.805 235.422L159.496 235.286C159.312 235.282 159.145 235.395 159.081 235.568L157.261 240.5C154.787 241.023 152.457 241.945 150.342 243.195L145.664 240.789C145.5 240.704 145.301 240.733 145.168 240.861L140.61 245.225C140.477 245.353 140.439 245.551 140.516 245.719L142.718 250.497C141.378 252.556 140.356 254.843 139.727 257.292L134.721 258.898C134.545 258.954 134.424 259.116 134.421 259.3L134.284 265.609C134.28 265.793 134.394 265.96 134.567 266.023L139.499 267.844C140.022 270.318 140.943 272.647 142.193 274.762L139.788 279.441C139.703 279.605 139.732 279.804 139.86 279.937L144.224 284.495C144.352 284.629 144.55 284.667 144.717 284.589Z" fill="#8BACD6"/>
<path d="M162.041 269.146C160.91 269.146 159.8 268.829 158.819 268.214C157.44 267.351 156.481 266.002 156.117 264.416C155.753 262.831 156.028 261.199 156.892 259.82C157.755 258.442 159.104 257.482 160.689 257.118C163.964 256.366 167.236 258.419 167.988 261.691C168.352 263.277 168.077 264.909 167.213 266.288C166.349 267.666 165 268.625 163.415 268.989C162.958 269.094 162.498 269.146 162.041 269.146ZM162.052 257.937C161.674 257.937 161.291 257.979 160.907 258.067C159.575 258.373 158.442 259.18 157.716 260.337C156.991 261.496 156.76 262.867 157.065 264.199C157.371 265.531 158.177 266.664 159.335 267.39C160.493 268.115 161.865 268.346 163.197 268.041C164.529 267.735 165.662 266.929 166.387 265.771C167.113 264.613 167.344 263.241 167.038 261.909C166.495 259.543 164.383 257.937 162.052 257.937Z" fill="#101F32"/>
<g opacity="0.64">
<path d="M133.753 282.818C133.356 282.818 132.967 282.625 132.733 282.268C132.367 281.71 132.012 281.132 131.677 280.55C131.342 279.968 131.542 279.223 132.125 278.888C132.708 278.552 133.452 278.753 133.787 279.336C134.099 279.877 134.429 280.415 134.769 280.934C135.138 281.496 134.981 282.25 134.419 282.619C134.213 282.754 133.981 282.818 133.753 282.818Z" fill="#B2C7E3"/>
<path d="M130.067 275.292C129.562 275.292 129.089 274.975 128.916 274.47C128.516 273.304 128.173 272.102 127.896 270.895L127.811 270.513C127.667 269.856 128.082 269.207 128.739 269.064C129.395 268.919 130.044 269.335 130.188 269.992L130.269 270.351C130.527 271.475 130.846 272.595 131.219 273.68C131.437 274.316 131.098 275.008 130.463 275.226C130.331 275.271 130.198 275.292 130.067 275.292ZM128.227 265.073C127.569 265.073 127.027 264.548 127.011 263.886C127.003 263.598 127 263.311 127 263.024C127 261.943 127.051 260.85 127.152 259.775C127.215 259.106 127.808 258.615 128.478 258.677C129.147 258.74 129.638 259.333 129.576 260.003C129.482 261.002 129.434 262.019 129.434 263.024C129.434 263.291 129.437 263.558 129.444 263.826C129.461 264.498 128.929 265.056 128.257 265.073C128.247 265.073 128.237 265.073 128.227 265.073ZM129.578 254.779C129.465 254.779 129.349 254.763 129.235 254.729C128.59 254.54 128.22 253.864 128.41 253.219C128.794 251.908 129.261 250.606 129.796 249.348C130.06 248.729 130.776 248.443 131.393 248.705C132.012 248.968 132.3 249.683 132.036 250.302C131.538 251.472 131.104 252.684 130.746 253.904C130.59 254.434 130.105 254.779 129.578 254.779ZM133.989 245.381C133.756 245.381 133.52 245.313 133.311 245.173C132.753 244.798 132.605 244.042 132.981 243.484C133.743 242.35 134.581 241.25 135.47 240.214C135.908 239.704 136.676 239.645 137.186 240.083C137.696 240.52 137.755 241.289 137.317 241.799C136.489 242.764 135.71 243.788 135 244.843C134.765 245.192 134.381 245.381 133.989 245.381ZM141.034 237.756C140.675 237.756 140.32 237.598 140.08 237.296C139.662 236.769 139.75 236.004 140.276 235.586C141.346 234.737 142.477 233.943 143.639 233.225C144.212 232.872 144.961 233.05 145.314 233.622C145.667 234.194 145.49 234.944 144.918 235.297C143.837 235.964 142.784 236.703 141.79 237.492C141.566 237.67 141.299 237.756 141.034 237.756ZM150.059 232.636C149.567 232.636 149.104 232.337 148.92 231.849C148.683 231.22 149 230.518 149.629 230.28C150.904 229.799 152.224 229.387 153.552 229.055C154.204 228.893 154.865 229.289 155.027 229.942C155.19 230.594 154.793 231.254 154.141 231.417C152.904 231.726 151.676 232.109 150.489 232.558C150.347 232.611 150.202 232.636 150.059 232.636ZM164.187 230.502C164.161 230.502 164.136 230.501 164.109 230.5C163.438 230.457 162.756 230.436 162.082 230.436C161.483 230.446 160.881 230.452 160.285 230.486C159.619 230.519 159.039 230.009 159.002 229.338C158.964 228.667 159.478 228.093 160.149 228.055C160.791 228.019 161.44 227.993 162.083 228.002C162.807 228.002 163.54 228.024 164.262 228.07C164.933 228.112 165.443 228.69 165.4 229.361C165.36 230.006 164.824 230.502 164.187 230.502Z" fill="#B2C7E3"/>
<path d="M172.439 232.072C172.315 232.072 172.189 232.053 172.064 232.013C171.473 231.822 170.867 231.645 170.263 231.487C169.612 231.317 169.223 230.653 169.393 230.002C169.563 229.352 170.227 228.963 170.878 229.132C171.527 229.302 172.178 229.492 172.813 229.698C173.453 229.904 173.804 230.591 173.596 231.23C173.43 231.745 172.953 232.072 172.439 232.072Z" fill="#B2C7E3"/>
</g>
<g opacity="0.64">
<path d="M192.694 249.921C192.236 249.921 191.797 249.661 191.59 249.218C191.327 248.656 191.043 248.092 190.747 247.543C190.428 246.951 190.648 246.213 191.24 245.894C191.831 245.574 192.57 245.795 192.889 246.386C193.208 246.977 193.513 247.583 193.796 248.189C194.08 248.798 193.817 249.522 193.208 249.807C193.041 249.884 192.866 249.921 192.694 249.921Z" fill="#B2C7E3"/>
<path d="M162.021 298.106C160.72 298.106 159.405 298.031 158.111 297.885C157.443 297.81 156.963 297.207 157.038 296.539C157.114 295.87 157.718 295.391 158.384 295.466C159.588 295.602 160.811 295.671 162.021 295.671L162.139 295.671C162.142 295.671 162.144 295.671 162.146 295.671C162.815 295.671 163.359 296.211 163.363 296.881C163.367 297.553 162.825 298.101 162.153 298.105L162.021 298.106ZM168.453 297.487C167.882 297.487 167.372 297.082 167.259 296.5C167.132 295.84 167.565 295.201 168.224 295.074C168.599 295.002 168.974 294.923 169.349 294.837C170.198 294.641 171.048 294.411 171.874 294.151C172.517 293.949 173.199 294.306 173.4 294.947C173.602 295.588 173.245 296.272 172.604 296.473C171.717 296.752 170.805 296.999 169.894 297.209C169.491 297.302 169.088 297.387 168.685 297.465C168.607 297.48 168.53 297.487 168.453 297.487ZM178.08 294.07C177.647 294.07 177.227 293.838 177.007 293.429C176.689 292.836 176.911 292.098 177.503 291.78C178.604 291.189 179.682 290.526 180.708 289.81C181.259 289.426 182.018 289.561 182.403 290.112C182.788 290.663 182.652 291.422 182.101 291.807C180.998 292.576 179.839 293.289 178.655 293.925C178.472 294.023 178.275 294.07 178.08 294.07ZM186.236 287.928C185.93 287.928 185.623 287.813 185.386 287.581C184.905 287.112 184.896 286.341 185.366 285.86C186.238 284.967 187.069 284.012 187.835 283.021C188.246 282.49 189.01 282.392 189.542 282.803C190.074 283.215 190.172 283.979 189.76 284.511C188.937 285.575 188.044 286.601 187.107 287.561C186.869 287.805 186.552 287.928 186.236 287.928ZM192.19 279.631C192.004 279.631 191.815 279.588 191.638 279.498C191.039 279.193 190.802 278.459 191.107 277.861C191.676 276.746 192.186 275.587 192.623 274.415C192.858 273.785 193.559 273.465 194.189 273.7C194.818 273.934 195.139 274.635 194.904 275.265C194.435 276.524 193.887 277.77 193.276 278.967C193.06 279.389 192.633 279.631 192.19 279.631ZM195.412 269.937C195.344 269.937 195.275 269.931 195.206 269.919C194.543 269.807 194.097 269.178 194.21 268.515C194.42 267.281 194.56 266.022 194.625 264.774C194.66 264.102 195.23 263.581 195.904 263.622C196.575 263.657 197.091 264.23 197.056 264.901C196.986 266.243 196.835 267.596 196.61 268.924C196.509 269.517 195.994 269.937 195.412 269.937ZM195.573 259.722C194.974 259.722 194.452 259.28 194.368 258.67C194.236 257.699 194.056 256.719 193.836 255.756C193.775 255.494 193.712 255.233 193.646 254.973C193.48 254.322 193.873 253.659 194.525 253.493C195.176 253.327 195.839 253.721 196.005 254.373C196.075 254.651 196.143 254.931 196.208 255.212C196.445 256.245 196.637 257.297 196.78 258.34C196.871 259.006 196.405 259.62 195.739 259.711C195.683 259.719 195.627 259.722 195.573 259.722Z" fill="#B2C7E3"/>
<path d="M152.026 296.584C151.906 296.584 151.784 296.567 151.664 296.529C151.028 296.331 150.387 296.111 149.757 295.875C149.128 295.639 148.809 294.937 149.046 294.308C149.282 293.679 149.984 293.359 150.613 293.596C151.199 293.816 151.796 294.021 152.388 294.205C153.029 294.405 153.388 295.087 153.188 295.729C153.026 296.25 152.545 296.584 152.026 296.584Z" fill="#B2C7E3"/>
</g>
<path d="M162.061 278.767C161.945 278.767 161.829 278.766 161.712 278.764C160.678 278.741 159.647 278.617 158.642 278.396C158.559 278.378 158.477 278.358 158.394 278.339C158.171 278.285 158.02 278.085 158.02 277.865C158.02 277.828 158.025 277.79 158.034 277.752C158.096 277.491 158.36 277.33 158.62 277.391C159.635 277.633 160.683 277.767 161.733 277.79C161.841 277.792 161.95 277.793 162.057 277.793C169.804 277.794 176.227 271.76 176.756 264.073C176.772 263.84 176.783 263.607 176.788 263.372C176.79 263.265 176.791 263.158 176.791 263.052C176.793 255.07 170.389 248.491 162.371 248.318C154.243 248.143 147.492 254.61 147.316 262.735C147.314 262.842 147.313 262.949 147.313 263.056C147.313 265.617 147.976 268.131 149.241 270.347C149.284 270.423 149.305 270.506 149.305 270.588C149.305 270.757 149.217 270.921 149.059 271.011C148.826 271.144 148.528 271.063 148.395 270.83C147.047 268.467 146.339 265.786 146.339 263.056C146.339 262.942 146.34 262.828 146.342 262.714C146.53 254.052 153.726 247.156 162.391 247.344C170.939 247.529 177.766 254.543 177.765 263.051C177.765 263.165 177.764 263.279 177.761 263.393C177.671 267.589 175.951 271.499 172.92 274.402C169.973 277.224 166.128 278.767 162.061 278.767Z" fill="#101F32"/>
</svg>
