<svg width="500" height="500" viewBox="0 0 500 500" fill="none" xmlns="http://www.w3.org/2000/svg">
<path d="M434.423 386.55H422.155V217.483C422.155 207.273 430.461 198.966 440.671 198.966H453.433C456.878 198.966 459.681 196.164 459.681 192.718V157.222H471.949V192.718C471.949 202.928 463.643 211.235 453.433 211.235H440.671C437.226 211.235 434.423 214.038 434.423 217.483V386.55Z" fill="#3E74BA"/>
<path d="M473.939 187.372H457.593V190.17H473.939V187.372Z" fill="#3665A3"/>
<path d="M447.583 196.797V213.142H444.785V196.797H447.583Z" fill="#3665A3"/>
<path d="M420.046 222.868H436.391V225.666H420.046V222.868Z" fill="#3665A3"/>
<path d="M482.743 399.818H17.2567C16.6382 399.818 16.1367 400.319 16.1367 400.938C16.1367 401.556 16.6382 402.058 17.2567 402.058H482.743C483.362 402.058 483.863 401.556 483.863 400.938C483.863 400.319 483.362 399.818 482.743 399.818Z" fill="#101F32"/>
<path d="M446.153 398.494H413.652V398.744H446.153V398.494Z" fill="#EBEBEB"/>
<path d="M329.697 401.208H321.167V401.458H329.697V401.208Z" fill="#EBEBEB"/>
<path d="M412.67 389.208H393.838V389.458H412.67V389.208Z" fill="#EBEBEB"/>
<path d="M113.497 390.888H107.283V391.138H113.497V390.888Z" fill="#EBEBEB"/>
<path d="M175.913 390.082C178.015 387.385 188.865 384.282 188.865 384.282C188.865 384.282 207.163 377.215 223.883 373.837C240.603 370.459 285.401 383.148 285.401 383.148C285.401 383.148 308.125 379.334 316.007 389.464C323.889 399.593 282.234 410.278 245.96 412.219C209.686 414.16 188.865 399.527 188.865 399.527C188.865 399.527 171.164 396.178 175.913 390.082Z" fill="#8BACD6"/>
<path d="M175.913 390.082C178.015 387.385 188.865 384.282 188.865 384.282C188.865 384.282 207.163 377.215 223.883 373.837C240.603 370.459 285.401 383.148 285.401 383.148C285.401 383.148 308.125 379.334 316.007 389.464C323.889 399.593 282.234 410.278 245.96 412.219C209.686 414.16 188.865 399.527 188.865 399.527C188.865 399.527 171.164 396.178 175.913 390.082Z" fill="#DDEDFE"/>
<path d="M468.478 393.072C466.258 390.439 454.793 387.411 454.793 387.411C454.793 387.411 435.46 380.513 417.793 377.217C400.126 373.92 352.793 386.305 352.793 386.305C352.793 386.305 328.782 382.583 320.454 392.469C312.126 402.356 356.139 412.784 394.466 414.679C432.793 416.574 454.793 402.291 454.793 402.291C454.793 402.291 473.496 399.022 468.478 393.072Z" fill="#8BACD6"/>
<path d="M468.478 393.072C466.258 390.439 454.793 387.411 454.793 387.411C454.793 387.411 435.46 380.513 417.793 377.217C400.126 373.92 352.793 386.305 352.793 386.305C352.793 386.305 328.782 382.583 320.454 392.469C312.126 402.356 356.139 412.784 394.466 414.679C432.793 416.574 454.793 402.291 454.793 402.291C454.793 402.291 473.496 399.022 468.478 393.072Z" fill="#DDEDFE"/>
<path d="M261.629 232.001L244.999 221.122V118.991C244.999 114.743 241.556 111.001 237.308 111.001H62.68C58.432 111.001 54.999 114.743 54.999 118.991L54.999 325.35C54.999 329.598 58.433 332.99 62.68 332.99H237.307C241.555 332.99 244.998 329.597 244.998 325.35V231.05L261.629 232.001Z" fill="#E8FDD9"/>
<path d="M123.244 106H121.069C120.517 106 120.069 106.448 120.069 107C120.069 107.552 120.517 108 121.069 108H123.244C123.796 108 124.244 107.552 124.244 107C124.244 106.448 123.796 106 123.244 106Z" fill="#E8FDD9"/>
<path d="M109.808 106H78.005C77.4527 106 77.005 106.448 77.005 107C77.005 107.552 77.4527 108 78.005 108H109.808C110.36 108 110.808 107.552 110.808 107C110.808 106.448 110.36 106 109.808 106Z" fill="#E8FDD9"/>
<path d="M50 285.566V253.763C50 253.211 49.5523 252.763 49 252.763C48.4477 252.763 48 253.211 48 253.763V285.566C48 286.118 48.4477 286.566 49 286.566C49.5523 286.566 50 286.118 50 285.566Z" fill="#E8FDD9"/>
<path d="M146.925 300.519V302.803C146.925 304.343 147.92 305.758 149.47 305.758H233.692C235.243 305.758 237.024 304.343 237.024 302.803V300.519H146.925Z" fill="#2A5081"/>
<path d="M178.354 300.519V302.803C178.354 304.343 179.371 305.758 180.911 305.758H233.692C235.243 305.758 237.024 304.343 237.024 302.803V300.519H178.354Z" fill="#8BACD6"/>
<path d="M180.911 303.662H236.552C238.26 303.662 240.072 302.321 240.596 300.677L253.357 260.651C253.88 259.006 252.927 257.565 251.219 257.565H195.578C193.87 257.565 192.058 259.006 191.534 260.651L178.773 300.627C178.25 302.271 179.203 303.662 180.911 303.662Z" fill="#8BACD6"/>
<path d="M183.006 303.662H236.552C238.26 303.662 240.072 302.321 240.596 300.677L253.357 260.651C253.88 259.006 252.927 257.565 251.219 257.565H197.673C195.966 257.565 194.153 259.006 193.629 260.651L180.869 300.627C180.345 302.271 181.298 303.662 183.006 303.662Z" fill="#2A5081"/>
<path d="M320.53 183.28L325.308 181.079C327.367 182.419 329.655 183.441 332.103 184.07L333.71 189.076C333.766 189.252 333.927 189.372 334.112 189.376L340.421 189.513C340.605 189.517 340.772 189.403 340.835 189.23L342.656 184.298C345.13 183.775 347.459 182.853 349.574 181.604L354.253 184.009C354.417 184.094 354.616 184.065 354.749 183.937L359.306 179.573C359.44 179.445 359.477 179.247 359.4 179.08L357.199 174.302C358.539 172.242 359.56 169.955 360.19 167.506L365.196 165.9C365.372 165.844 365.492 165.682 365.496 165.498L365.633 159.189C365.637 159.005 365.523 158.838 365.35 158.774L360.418 156.953C359.895 154.48 358.973 152.15 357.724 150.035L360.129 145.357C360.214 145.193 360.185 144.993 360.057 144.86L355.693 140.303C355.565 140.169 355.367 140.132 355.2 140.209L350.422 142.41C348.362 141.07 346.075 140.049 343.626 139.419L342.02 134.413C341.964 134.238 341.802 134.117 341.618 134.113L335.309 133.977C335.125 133.973 334.958 134.086 334.894 134.259L333.074 139.191C330.6 139.714 328.27 140.636 326.155 141.886L321.477 139.48C321.313 139.395 321.114 139.425 320.981 139.552L316.423 143.917C316.29 144.044 316.252 144.242 316.329 144.41L318.531 149.188C317.191 151.247 316.169 153.534 315.54 155.983L310.534 157.589C310.358 157.645 310.237 157.807 310.234 157.991L310.097 164.3C310.093 164.484 310.207 164.651 310.38 164.715L315.312 166.535C315.835 169.009 316.757 171.338 318.006 173.453L315.601 178.132C315.516 178.296 315.546 178.495 315.673 178.629L320.038 183.186C320.165 183.32 320.363 183.358 320.53 183.28Z" fill="#D8E3F1"/>
<path d="M337.853 167.837C336.723 167.837 335.613 167.52 334.631 166.905C333.253 166.042 332.293 164.693 331.929 163.108C331.565 161.522 331.84 159.89 332.704 158.511C333.568 157.133 334.917 156.173 336.502 155.809C339.777 155.057 343.049 157.11 343.801 160.382C344.164 161.968 343.889 163.6 343.026 164.979C342.162 166.357 340.813 167.317 339.228 167.68C338.771 167.785 338.31 167.837 337.853 167.837ZM337.865 156.628C337.487 156.628 337.104 156.671 336.72 156.759C335.388 157.065 334.255 157.871 333.529 159.029C332.803 160.187 332.573 161.558 332.878 162.89C333.184 164.222 333.99 165.355 335.148 166.081C336.306 166.806 337.678 167.037 339.01 166.732C340.341 166.426 341.474 165.62 342.2 164.462C342.926 163.304 343.157 161.933 342.851 160.601C342.308 158.234 340.196 156.628 337.865 156.628Z" fill="#729DD4"/>
<g opacity="0.64">
<path d="M309.566 181.51C309.169 181.51 308.78 181.316 308.547 180.959C308.18 180.401 307.825 179.823 307.49 179.241C307.155 178.659 307.355 177.914 307.938 177.579C308.521 177.244 309.265 177.444 309.6 178.027C309.912 178.568 310.242 179.106 310.582 179.625C310.951 180.187 310.794 180.941 310.232 181.31C310.026 181.445 309.794 181.51 309.566 181.51Z" fill="#D8E3F1"/>
<path d="M305.88 173.984C305.375 173.984 304.902 173.666 304.729 173.161C304.329 171.995 303.986 170.793 303.709 169.586L303.624 169.204C303.48 168.547 303.895 167.899 304.552 167.755C305.208 167.61 305.857 168.026 306.001 168.683L306.082 169.042C306.34 170.166 306.659 171.286 307.032 172.371C307.25 173.007 306.911 173.699 306.276 173.917C306.144 173.962 306.011 173.984 305.88 173.984ZM304.04 163.764C303.382 163.764 302.84 163.239 302.824 162.577C302.816 162.289 302.813 162.002 302.813 161.715C302.813 160.634 302.864 159.541 302.965 158.467C303.028 157.797 303.621 157.306 304.29 157.368C304.96 157.431 305.451 158.025 305.389 158.694C305.295 159.694 305.247 160.71 305.247 161.715C305.247 161.982 305.25 162.249 305.257 162.517C305.274 163.189 304.742 163.747 304.07 163.764C304.06 163.764 304.05 163.764 304.04 163.764ZM305.391 153.47C305.278 153.47 305.162 153.454 305.048 153.42C304.403 153.231 304.033 152.555 304.223 151.91C304.607 150.599 305.074 149.297 305.609 148.039C305.873 147.421 306.589 147.134 307.206 147.396C307.825 147.659 308.113 148.374 307.849 148.993C307.351 150.163 306.917 151.375 306.559 152.595C306.403 153.125 305.918 153.47 305.391 153.47ZM309.802 144.072C309.569 144.072 309.333 144.004 309.124 143.864C308.566 143.489 308.418 142.733 308.794 142.175C309.556 141.041 310.394 139.941 311.283 138.905C311.721 138.395 312.489 138.336 312.999 138.774C313.509 139.211 313.568 139.98 313.13 140.49C312.302 141.455 311.523 142.479 310.813 143.534C310.578 143.883 310.194 144.072 309.802 144.072ZM316.847 136.447C316.488 136.447 316.133 136.29 315.893 135.987C315.475 135.46 315.563 134.695 316.089 134.277C317.158 133.428 318.29 132.634 319.452 131.916C320.025 131.563 320.774 131.741 321.127 132.313C321.48 132.885 321.303 133.635 320.73 133.988C319.65 134.655 318.597 135.394 317.602 136.183C317.379 136.361 317.112 136.447 316.847 136.447ZM325.872 131.328C325.38 131.328 324.917 131.028 324.733 130.54C324.496 129.911 324.813 129.209 325.442 128.971C326.717 128.49 328.037 128.078 329.365 127.746C330.017 127.584 330.678 127.98 330.84 128.633C331.003 129.285 330.606 129.946 329.954 130.108C328.717 130.417 327.489 130.801 326.302 131.249C326.16 131.302 326.015 131.328 325.872 131.328ZM340 129.193C339.974 129.193 339.948 129.192 339.922 129.191C339.251 129.149 338.569 129.127 337.895 129.127C337.296 129.138 336.694 129.144 336.098 129.177C335.432 129.21 334.852 128.7 334.815 128.029C334.777 127.358 335.291 126.784 335.962 126.746C336.604 126.711 337.253 126.684 337.896 126.693C338.62 126.693 339.353 126.716 340.075 126.761C340.746 126.803 341.256 127.381 341.213 128.052C341.173 128.697 340.637 129.193 340 129.193Z" fill="#D8E3F1"/>
<path d="M348.252 130.764C348.128 130.764 348.001 130.745 347.877 130.704C347.286 130.513 346.68 130.336 346.076 130.179C345.425 130.009 345.036 129.344 345.206 128.693C345.376 128.043 346.04 127.654 346.691 127.823C347.34 127.993 347.991 128.183 348.626 128.389C349.266 128.596 349.617 129.282 349.409 129.921C349.243 130.436 348.766 130.764 348.252 130.764Z" fill="#D8E3F1"/>
</g>
<g opacity="0.64">
<path d="M368.507 148.612C368.049 148.612 367.61 148.352 367.403 147.91C367.141 147.347 366.857 146.783 366.56 146.234C366.241 145.642 366.461 144.904 367.053 144.585C367.645 144.266 368.383 144.486 368.702 145.078C369.021 145.668 369.326 146.275 369.609 146.88C369.893 147.489 369.63 148.213 369.021 148.498C368.855 148.575 368.679 148.612 368.507 148.612Z" fill="#D8E3F1"/>
<path d="M337.834 196.797C336.533 196.797 335.218 196.722 333.924 196.576C333.256 196.501 332.776 195.898 332.851 195.23C332.927 194.562 333.531 194.082 334.197 194.157C335.401 194.293 336.624 194.362 337.834 194.362L337.952 194.362C337.955 194.362 337.957 194.362 337.959 194.362C338.628 194.362 339.172 194.902 339.176 195.572C339.18 196.244 338.638 196.792 337.966 196.796L337.834 196.797ZM344.266 196.178C343.695 196.178 343.185 195.773 343.072 195.191C342.945 194.531 343.378 193.893 344.037 193.765C344.412 193.693 344.787 193.614 345.162 193.528C346.011 193.333 346.861 193.102 347.687 192.842C348.33 192.64 349.012 192.997 349.213 193.638C349.415 194.279 349.058 194.963 348.417 195.164C347.53 195.443 346.618 195.691 345.707 195.9C345.304 195.993 344.901 196.078 344.498 196.156C344.42 196.171 344.343 196.178 344.266 196.178ZM353.893 192.761C353.46 192.761 353.04 192.529 352.82 192.12C352.502 191.527 352.724 190.789 353.316 190.471C354.417 189.88 355.495 189.217 356.521 188.502C357.072 188.118 357.831 188.252 358.216 188.803C358.601 189.354 358.465 190.113 357.914 190.498C356.811 191.267 355.652 191.98 354.468 192.616C354.285 192.715 354.088 192.761 353.893 192.761ZM362.049 186.619C361.743 186.619 361.436 186.504 361.199 186.272C360.718 185.803 360.709 185.032 361.179 184.551C362.051 183.658 362.882 182.703 363.648 181.713C364.059 181.181 364.823 181.083 365.355 181.494C365.887 181.906 365.985 182.67 365.573 183.202C364.75 184.266 363.857 185.292 362.92 186.252C362.682 186.496 362.365 186.619 362.049 186.619ZM368.003 178.323C367.817 178.323 367.628 178.28 367.451 178.189C366.852 177.884 366.615 177.151 366.92 176.552C367.489 175.437 367.999 174.278 368.436 173.106C368.671 172.476 369.372 172.156 370.002 172.391C370.631 172.625 370.952 173.326 370.717 173.957C370.248 175.215 369.7 176.461 369.089 177.658C368.873 178.08 368.446 178.323 368.003 178.323ZM371.225 168.628C371.157 168.628 371.088 168.622 371.019 168.61C370.356 168.498 369.91 167.869 370.023 167.206C370.233 165.972 370.373 164.713 370.438 163.465C370.473 162.794 371.043 162.272 371.717 162.313C372.388 162.348 372.904 162.921 372.869 163.592C372.799 164.934 372.648 166.287 372.423 167.615C372.322 168.209 371.807 168.628 371.225 168.628ZM371.386 158.413C370.787 158.413 370.265 157.971 370.181 157.361C370.049 156.39 369.869 155.41 369.649 154.448C369.588 154.185 369.525 153.924 369.459 153.664C369.293 153.013 369.686 152.35 370.338 152.185C370.989 152.018 371.652 152.412 371.818 153.064C371.888 153.342 371.956 153.622 372.021 153.903C372.258 154.936 372.45 155.988 372.593 157.031C372.684 157.697 372.218 158.311 371.552 158.402C371.496 158.41 371.44 158.413 371.386 158.413Z" fill="#D8E3F1"/>
<path d="M327.839 195.276C327.72 195.276 327.598 195.258 327.477 195.221C326.841 195.023 326.2 194.802 325.571 194.566C324.941 194.33 324.623 193.628 324.859 192.999C325.095 192.37 325.798 192.051 326.426 192.287C327.012 192.507 327.609 192.712 328.201 192.896C328.843 193.096 329.201 193.778 329.001 194.42C328.839 194.942 328.358 195.276 327.839 195.276Z" fill="#D8E3F1"/>
</g>
<path d="M337.874 177.458C337.758 177.458 337.642 177.457 337.526 177.455C336.491 177.432 335.46 177.309 334.455 177.087C334.373 177.069 334.29 177.05 334.208 177.03C333.984 176.977 333.833 176.777 333.834 176.556C333.834 176.519 333.838 176.481 333.847 176.444C333.909 176.182 334.173 176.021 334.433 176.083C335.448 176.324 336.496 176.458 337.547 176.481C337.654 176.483 337.763 176.484 337.87 176.484C345.617 176.485 352.041 170.451 352.57 162.764C352.586 162.531 352.596 162.299 352.601 162.063C352.603 161.956 352.605 161.85 352.605 161.743C352.606 153.761 346.202 147.182 338.184 147.009C330.056 146.834 323.305 153.301 323.129 161.427C323.127 161.533 323.126 161.64 323.126 161.747C323.126 164.308 323.79 166.823 325.054 169.038C325.098 169.114 325.118 169.197 325.118 169.279C325.118 169.448 325.03 169.612 324.873 169.702C324.639 169.836 324.342 169.754 324.208 169.521C322.86 167.158 322.152 164.478 322.152 161.747C322.152 161.633 322.153 161.519 322.156 161.406C322.343 152.743 329.539 145.848 338.204 146.035C346.753 146.22 353.58 153.234 353.578 161.743C353.578 161.857 353.577 161.97 353.575 162.084C353.484 166.281 351.764 170.19 348.733 173.093C345.786 175.916 341.942 177.458 337.874 177.458Z" fill="#729DD4"/>
<path d="M210.164 184.369L171.97 192.545C169.297 193.117 166.668 191.414 166.096 188.743L157.92 150.548C157.348 147.876 159.051 145.246 161.722 144.674L199.917 136.498C202.589 135.926 205.219 137.629 205.791 140.301L213.967 178.496C214.539 181.167 212.837 183.797 210.164 184.369Z" fill="#1A3354"/>
<path d="M203.26 169.137C203.239 168.754 203.102 168.424 202.97 168.104C202.928 168.003 202.887 167.902 202.837 167.771C201.986 166.047 200.398 164.988 199.105 164.256C197.767 163.523 196.304 162.959 194.631 162.533L194.442 162.484C194.315 162.452 194.183 162.508 194.118 162.62L191.086 167.817L179.94 160.665L182.978 155.058C183.016 154.987 183.024 154.905 183 154.828C182.975 154.752 182.92 154.69 182.849 154.655L180.288 153.428C179.871 153.234 179.609 153.112 179.435 153.055C179.377 153.017 179.297 152.976 179.19 152.923C179.146 152.904 179.098 152.878 179.043 152.85C178.892 152.774 178.702 152.678 178.469 152.6C177.828 152.357 176.777 152.089 175.418 152.137C174.471 152.176 172.621 152.451 170.872 153.865C169.105 155.272 168.081 157.436 168.135 159.654C168.164 160.936 168.782 162.256 169.786 163.176C170.285 163.658 170.88 164.036 171.403 164.367L188.36 175.226C188.57 175.356 188.777 175.491 188.986 175.626C189.472 175.94 189.976 176.266 190.533 176.553C191.316 176.958 192.17 177.257 193.07 177.441C193.679 177.567 194.298 177.63 194.913 177.63C196.157 177.63 197.387 177.375 198.497 176.877C200.173 176.15 201.581 174.813 202.46 173.115C202.636 172.785 202.856 172.342 202.992 171.849L203.062 171.626C203.178 171.265 203.298 170.893 203.298 170.5L203.35 169.772L203.26 169.137Z" fill="#8AF441"/>
<path d="M294.278 220.599L289.458 239.318C289.291 239.967 288.511 240.148 287.872 239.984L279.069 237.717C278.42 237.55 277.67 236.975 277.837 236.326L282.657 217.607C282.824 216.958 283.906 216.245 284.555 216.412L293.358 218.679C293.997 218.844 294.445 219.95 294.278 220.599Z" fill="#3E74BA"/>
<path opacity="0.5" d="M294.278 220.599L289.458 239.318C289.291 239.967 288.511 240.148 287.872 239.984L279.069 237.717C278.42 237.55 277.67 236.975 277.837 236.326L282.657 217.607C282.824 216.958 283.906 216.245 284.555 216.412L293.358 218.679C293.997 218.844 294.445 219.95 294.278 220.599Z" fill="black"/>
<path opacity="0.3" d="M293.309 220.35L288.489 239.069C288.322 239.718 287.542 239.899 286.903 239.735L279.069 237.718C278.42 237.551 277.67 236.976 277.837 236.327L282.657 217.608C282.824 216.959 283.906 216.246 284.555 216.413L292.389 218.43C293.028 218.594 293.477 219.701 293.309 220.35Z" fill="white"/>
<path d="M293.195 248.509L282.583 238.415L284.304 232.966C284.304 232.966 283.73 223.008 282.737 223.086C281.833 223.157 277.421 228.664 275.413 231.532C273.405 234.4 277.421 244.068 277.421 244.068L288.319 254.812L293.195 248.509Z" fill="#B97964"/>
<path d="M359.664 274.265L358.528 280.655L356.314 293.171C353.664 292.563 351.048 291.863 348.467 291.072C305.069 277.925 280.094 248.511 280.094 248.511L285.807 240.228C325.168 271.202 359.664 274.265 359.664 274.265Z" fill="#1A3354"/>
<path opacity="0.2" d="M358.528 280.655L356.314 293.171C353.664 292.563 351.048 291.863 348.467 291.072C350.383 285.68 355.569 282.25 358.528 280.655Z" fill="black"/>
<path d="M411.506 280.214C408.86 289.951 406.943 299.871 405.77 309.892C404.91 316.879 404.405 323.544 404.084 329.601C403.338 343.78 403.648 354.587 403.224 358.281C396.169 357.799 369.588 355.987 355.099 354.931C350.258 317.073 355.799 292.799 359.034 282.657C360.122 279.244 363.096 276.776 366.652 276.336C368.407 276.118 370.438 275.9 372.571 275.774C373.397 275.774 374.223 275.694 375.06 275.682C381.904 275.762 388.737 276.237 395.526 277.105C396.811 277.254 398.119 277.449 399.381 277.656C405.839 278.642 411.506 280.214 411.506 280.214Z" fill="#3E74BA"/>
<path opacity="0.6" d="M411.506 280.214C408.86 289.951 406.943 299.871 405.77 309.892C404.91 316.879 404.405 323.544 404.084 329.601C403.338 343.78 403.648 354.587 403.224 358.281C396.169 357.799 369.588 355.987 355.099 354.931C350.258 317.073 355.799 292.799 359.034 282.657C360.122 279.244 363.096 276.776 366.652 276.336C368.407 276.118 370.438 275.9 372.571 275.774C373.397 275.774 374.223 275.694 375.06 275.682C381.904 275.762 388.737 276.237 395.526 277.105C396.811 277.254 398.119 277.449 399.381 277.656C405.839 278.642 411.506 280.214 411.506 280.214Z" fill="white"/>
<path d="M370.895 274.177C370.895 274.177 359.245 291.716 356.292 369.152L348.835 363.681C348.835 363.681 343.531 317.177 359.662 274.177H370.895Z" fill="#1A3354"/>
<path d="M355.098 354.931C355.098 354.931 288.128 336.241 279.715 359.745C271.302 383.249 332.104 401.986 365.755 403.134C399.406 404.282 413.135 380.685 403.211 358.258L355.098 354.931Z" fill="#3665A3"/>
<path d="M400.802 276.449C400.802 276.449 377.881 327.955 401.455 375.104C401.455 375.104 408.31 372.924 411.507 368.717C411.507 368.717 407.821 324.621 414.321 280.574C414.321 280.574 404.017 274.983 400.802 276.449Z" fill="#1A3354"/>
<path d="M396.723 288.049C396.723 288.049 410.356 279.355 408.202 273.549C404.904 264.658 381.319 265.253 371.778 269.677C361.883 274.266 366.31 286.409 366.31 286.409C368.377 279.901 371.477 276.968 375.059 275.683C377.342 274.864 379.823 278.819 384.913 277.098C402.477 271.161 396.723 288.049 396.723 288.049Z" fill="#3E74BA"/>
<path d="M398.747 252.464C398.747 252.464 396.415 256.675 395.903 259.543C395.392 262.411 393.346 270.393 385.813 265.303C378.279 260.212 386.71 245.671 398.747 252.464Z" fill="#2E353A"/>
<path d="M395.113 253.863C393.369 260.368 391.235 272.333 395.537 277.048C391.138 281.04 385.225 282.927 379.327 282.222C373.671 281.706 373.66 277.725 375.071 275.626C382.539 274.387 382.734 268.926 381.805 263.718L395.113 253.863Z" fill="#B97964"/>
<path opacity="0.2" d="M389.687 257.889L381.817 263.705C382.044 264.92 382.17 266.152 382.196 267.388C385.03 267.182 389.079 264.371 389.595 261.457C389.845 260.284 389.876 259.074 389.687 257.889Z" fill="black"/>
<path d="M397.675 245.378C395.465 254.042 394.58 259.228 389.275 262.847C379.331 268.912 370.796 264.705 370.82 253.056C370.46 244.807 374.177 232.015 383.437 230.183C390.047 228.828 396.504 233.087 397.86 239.697C398.246 241.579 398.182 243.525 397.675 245.378Z" fill="#B97964"/>
<path d="M383.891 245.262C383.804 245.979 383.269 246.481 382.795 246.388C382.321 246.296 382.065 245.641 382.198 244.929C382.331 244.217 382.831 243.712 383.294 243.803C383.756 243.893 384.025 244.538 383.891 245.262Z" fill="#2E353A"/>
<path d="M375.817 243.702C375.73 244.419 375.183 244.919 374.721 244.828C374.258 244.737 373.991 244.081 374.124 243.369C374.257 242.657 374.757 242.152 375.22 242.243C375.683 242.333 375.946 243.024 375.817 243.702Z" fill="#2E353A"/>
<path d="M378.315 244.549C377.043 246.569 375.497 248.403 373.723 250C374.579 250.902 375.79 251.379 377.031 251.304L378.315 244.549Z" fill="#A24E3F"/>
<path d="M386.9 243.131C386.741 243.123 386.598 243.031 386.525 242.889C386.069 241.903 385.175 241.19 384.112 240.966C383.879 240.938 383.713 240.727 383.741 240.494C383.769 240.261 383.98 240.095 384.213 240.123H384.215C385.565 240.372 386.711 241.261 387.288 242.508C387.397 242.715 387.318 242.972 387.111 243.082C387.108 243.084 387.105 243.085 387.102 243.087C387.037 243.112 386.969 243.127 386.9 243.131Z" fill="#2E353A"/>
<path d="M372.886 240.248C372.801 240.264 372.714 240.254 372.636 240.217C372.446 240.079 372.404 239.814 372.542 239.624C372.544 239.621 372.546 239.619 372.547 239.617C373.348 238.496 374.644 237.834 376.022 237.844C376.256 237.859 376.433 238.061 376.418 238.295V238.296C376.397 238.528 376.198 238.702 375.965 238.692C374.877 238.716 373.865 239.253 373.235 240.14C373.14 240.225 373.012 240.265 372.886 240.248Z" fill="#2E353A"/>
<path d="M377.963 232.952C381.823 231.159 386.525 232.885 389.334 234.335C392.143 235.785 391.092 239.677 391.092 239.677C391.092 239.677 390.31 251.347 394.354 253.481L395.551 257.129C395.551 257.129 404.348 251.042 403.409 239.756C402.471 228.47 387.269 227.559 382.415 228.667C377.562 229.774 377.963 232.952 377.963 232.952Z" fill="#2E353A"/>
<path d="M399.768 255.814C398.227 257.455 396.099 258.418 393.849 258.492C390.87 258.569 390.106 255.725 391.535 253.287C392.826 251.133 395.941 248.415 398.637 249.528C401.334 250.642 401.634 253.776 399.768 255.814Z" fill="#B97964"/>
<path d="M376.738 253.806C377.001 255.087 377.021 257.377 377.021 257.377C377.229 257.413 377.437 257.448 377.646 257.473C380.477 257.884 381.926 257.139 382.674 256.189C383.081 255.668 383.273 255.077 383.365 254.585C383.476 254.018 383.426 253.588 383.426 253.588C381.795 254.267 379.126 254.087 377.705 253.931C377.109 253.872 376.738 253.806 376.738 253.806Z" fill="#2E353A"/>
<path d="M377.705 253.931L377.816 254.982C380.484 255.362 382.413 255.272 383.365 254.585C383.476 254.018 383.426 253.588 383.426 253.588C381.795 254.267 379.126 254.087 377.705 253.931Z" fill="white"/>
<path d="M377.646 257.473C380.477 257.884 381.926 257.139 382.674 256.189C381.704 256.086 380.523 256.07 379.44 256.356C378.611 256.571 378.047 257.007 377.646 257.473Z" fill="#DE5753"/>
<path d="M391.578 230.532C392.101 228.313 391.746 226.106 386.617 222.882C386.617 222.882 387.631 224.257 387.465 225.778C387.465 225.778 385.622 222.857 380.928 223.057C376.235 223.257 370.641 225.446 371.558 231.49C372.475 237.534 380.663 237.181 380.663 237.181C380.663 237.181 378.231 236.404 377.676 234.892C377.676 234.892 381.64 237.204 388.146 236.069C388.146 236.069 386.108 236.303 384.098 234.614C384.1 234.614 390.515 235.035 391.578 230.532Z" fill="#2E353A"/>
<path d="M287.399 391.603C286.896 391.22 286.527 390.688 286.344 390.083C286.272 389.676 286.425 389.261 286.744 388.998C286.917 388.817 287.173 388.742 287.416 388.801C288.543 389.14 289.658 392.376 289.767 392.751C289.799 392.825 289.775 392.912 289.708 392.959C289.636 393.014 289.538 393.019 289.461 392.972C288.729 392.587 288.039 392.128 287.399 391.603ZM287.583 389.374C287.507 389.307 287.419 389.255 287.324 389.223C287.228 389.191 287.123 389.222 287.06 389.3C286.828 389.47 286.716 389.759 286.775 390.041C287.274 391.072 288.124 391.891 289.173 392.351C288.827 391.271 288.289 390.262 287.583 389.374Z" fill="#3E74BA"/>
<path d="M289.414 392.974L289.385 392.875C288.986 391.88 288.887 389.255 289.7 388.683C289.982 388.498 290.354 388.533 290.597 388.767C290.878 388.954 291.071 389.246 291.133 389.578C291.389 390.902 289.835 392.862 289.73 392.953C289.681 393.017 289.596 393.042 289.521 393.014C289.483 393.011 289.445 392.997 289.414 392.974ZM290.404 389.17L290.326 389.109C290.085 388.94 289.988 389.017 289.936 389.044C289.459 389.375 289.376 391.216 289.632 392.336C290.054 391.734 290.833 390.478 290.672 389.641C290.64 389.458 290.545 389.292 290.404 389.17Z" fill="#3E74BA"/>
<path opacity="0.2" d="M412.137 299.205C411.759 303.335 411.46 307.407 411.231 311.388C406.424 306.076 407.594 297.599 407.594 297.599L412.137 299.205Z" fill="black"/>
<path d="M358.191 407.301C358.27 407.928 358.148 408.564 357.843 409.118C357.602 409.455 357.199 409.636 356.788 409.592C356.538 409.595 356.305 409.465 356.178 409.25C355.632 408.207 357.164 405.147 357.354 404.807C357.385 404.732 357.464 404.689 357.544 404.703C357.634 404.716 357.706 404.782 357.726 404.871C357.963 405.662 358.119 406.477 358.191 407.301ZM356.47 408.729C356.475 408.83 356.5 408.929 356.543 409.02C356.587 409.111 356.683 409.164 356.783 409.155C357.067 409.202 357.351 409.079 357.512 408.84C357.899 407.762 357.89 406.582 357.485 405.511C356.955 406.513 356.611 407.604 356.47 408.729Z" fill="#3E74BA"/>
<path d="M341.501 382.246L353.352 390.936L359.045 395.108L355.326 401.592L349.551 398.433L335.443 390.717L341.501 382.246Z" fill="#B97964"/>
<path d="M353.491 401.402L357.066 393.511C357.265 393.071 357.789 392.883 358.223 393.095L362.078 394.983C362.078 394.983 367.445 397.153 368.12 398.897C370.09 403.993 362.628 421.65 360.3 421.653C359.448 421.654 358.942 420.334 358.823 419.492C358.446 416.818 358.382 410.095 358.039 407.868C357.639 405.265 355.008 403.261 353.793 402.464C353.442 402.234 353.318 401.784 353.491 401.402Z" fill="#2E353A"/>
<path d="M357.761 404.902L357.71 404.992C357.278 405.973 355.472 407.88 354.495 407.7C354.166 407.628 353.93 407.337 353.927 407C353.864 406.669 353.938 406.326 354.131 406.049C354.898 404.94 357.386 404.678 357.524 404.69C357.604 404.68 357.681 404.723 357.714 404.797C357.739 404.827 357.756 404.864 357.761 404.902ZM354.35 406.857L354.361 406.955C354.409 407.245 354.531 407.261 354.587 407.279C355.157 407.388 356.53 406.159 357.151 405.192C356.426 405.312 354.983 405.634 354.498 406.335C354.391 406.487 354.339 406.671 354.35 406.857Z" fill="#3E74BA"/>
<path opacity="0.2" d="M341.501 382.246L353.352 390.936L349.551 398.433L335.443 390.717L341.501 382.246Z" fill="black"/>
<path d="M346.844 398.923L342.946 398.057L349.424 385.695L353.036 389.383L346.844 398.923Z" fill="#3E74BA"/>
<path opacity="0.6" d="M346.844 398.923L342.946 398.057L349.424 385.695L353.036 389.383L346.844 398.923Z" fill="white"/>
<path d="M316.977 397.211L302.476 399.597L295.513 400.744L293.482 393.551L299.78 391.635L315.164 386.955L316.977 397.211Z" fill="#B97964"/>
<path d="M294.902 392.373L298.038 400.448C298.213 400.898 297.981 401.404 297.525 401.566L293.479 402.999C293.479 402.999 288.173 405.315 286.455 404.576C281.436 402.417 274.043 384.732 275.669 383.066C276.264 382.456 277.562 383.019 278.247 383.523C280.421 385.125 285.269 389.783 287.099 391.096C289.239 392.632 292.511 392.153 293.931 391.844C294.342 391.755 294.75 391.982 294.902 392.373Z" fill="#2E353A"/>
<path opacity="0.2" d="M316.977 397.211L302.476 399.597L299.78 391.635L315.164 386.955L316.977 397.211Z" fill="black"/>
<path d="M302.277 390.132C302.277 390.132 362.557 354.577 382.956 355.523C403.356 356.469 405.139 376.773 396.723 388.029C388.306 399.285 372.765 402.027 372.765 402.027C372.765 402.027 383.346 387.072 381.817 382.866C380.287 378.66 374.456 392.808 374.456 392.808C374.456 392.808 337.108 397.699 304.572 400.456L302.277 390.132Z" fill="#3E74BA"/>
<path d="M301.324 389.219L304.67 386.97L308.969 400.177H303.807L301.324 389.219Z" fill="#3E74BA"/>
<path opacity="0.6" d="M301.324 389.219L304.67 386.97L308.969 400.177H303.807L301.324 389.219Z" fill="white"/>
<path d="M353.39 290.91L354.094 290.361L360.389 292.917C362.167 293.64 363.423 295.254 363.686 297.154L364.265 301.34C364.355 301.984 364.511 302.611 364.727 303.216C365.066 304.188 365.565 305.101 366.201 305.918L397.049 345.552C397.75 346.453 398.607 347.218 399.569 347.816C400.028 348.102 400.511 348.349 401.011 348.552L404.926 350.142C406.704 350.863 407.96 352.478 408.223 354.378L408.833 358.777C408.941 359.561 408.005 360.049 407.425 359.51L402.975 355.413C401.963 354.467 400.372 354.524 399.428 355.536L396.959 358.186C396.013 359.198 396.069 360.788 397.082 361.733L402.209 366.514L401.346 367.186L395.066 364.638C393.281 363.912 392.02 362.286 391.764 360.376L391.207 356.206C391.17 355.929 391.121 355.651 391.059 355.378C390.752 353.994 390.139 352.697 389.261 351.577L358.387 311.987C357.588 310.966 356.597 310.118 355.469 309.495C355.134 309.309 354.786 309.142 354.429 308.999L350.512 307.406C348.734 306.685 347.478 305.071 347.215 303.169L346.728 299.674C346.599 298.725 347.732 298.135 348.433 298.79L352.163 302.267C353.196 303.231 354.82 303.174 355.784 302.141L358.527 299.203C359.492 298.17 359.434 296.548 358.402 295.583L353.39 290.91Z" fill="#8AF441"/>
<path d="M363.3 310.278L363.332 310.253C364.347 309.463 365.816 309.647 366.606 310.662L392.549 343.995C393.34 345.01 393.157 346.479 392.142 347.269C391.095 348.085 389.625 347.901 388.835 346.886L362.892 313.553C362.102 312.538 362.285 311.069 363.3 310.278ZM391.682 346.743C392.425 346.164 392.553 345.135 392 344.423L366.057 311.09C365.503 310.379 364.473 310.251 363.762 310.804L363.73 310.829C363.018 311.383 362.889 312.413 363.444 313.124L389.387 346.457C389.94 347.168 390.969 347.297 391.682 346.743Z" fill="#5FA82C"/>
<path d="M395.638 350.561C396.968 349.526 398.412 348.754 399.895 348.233C400.354 348.519 400.837 348.766 401.338 348.969L405.253 350.56C407.031 351.281 408.288 352.895 408.55 354.796L409.16 359.194C409.268 359.979 408.332 360.466 407.753 359.928L403.303 355.831C402.29 354.885 400.701 354.942 399.756 355.953L397.287 358.604C396.341 359.616 396.397 361.206 397.409 362.15L402.537 366.932L401.674 367.604L395.394 365.055C393.609 364.33 392.349 362.703 392.092 360.793L391.536 356.624C391.499 356.346 391.449 356.068 391.387 355.795C392.329 353.835 393.757 352.025 395.638 350.561Z" fill="#8AF441"/>
<path d="M352.903 290.283L353.607 289.735L359.902 292.292C361.679 293.014 362.936 294.628 363.199 296.528L363.778 300.714C363.868 301.358 364.024 301.985 364.239 302.59C363.379 303.867 362.296 305.043 360.997 306.054C359.147 307.494 357.082 308.428 354.984 308.87C354.649 308.684 354.302 308.518 353.943 308.374L350.027 306.78C348.249 306.059 346.992 304.445 346.73 302.544L346.245 299.049C346.114 298.099 347.247 297.509 347.948 298.165L351.678 301.641C352.711 302.605 354.334 302.548 355.299 301.516L358.041 298.577C359.006 297.545 358.948 295.922 357.916 294.957L352.903 290.283Z" fill="#8AF441"/>
<path d="M389.061 331.114L382.184 335.578L378.613 327.537C378.613 327.537 385.1 322.609 387.848 325.854L389.061 331.114Z" fill="#B97964"/>
<path d="M387.098 325.216L397.268 321.315L400 329.214C400 329.214 390.238 331.366 387.525 332.725C384.813 334.085 387.098 325.216 387.098 325.216Z" fill="#B97964"/>
<path d="M395.288 295.526C402.404 300.859 418.905 310.936 418.905 310.936L391.411 322.611L395.018 331.066C395.018 331.066 434.808 328.03 438.842 314.837C442.877 301.644 414.309 280.575 414.309 280.575C414.309 280.575 405.937 280.75 400.792 286.236C395.646 291.722 395.288 295.526 395.288 295.526Z" fill="#1A3354"/>
<path d="M382.345 325.462L388.092 332.47L384.557 334.852C384.464 334.915 383.009 335.869 381.403 336.921C380.337 337.863 378.491 339.126 377.889 339.449C377.782 339.506 377.715 339.533 377.698 339.524C377.698 339.524 377.41 339.673 377.065 339.762C377.057 339.768 377.049 339.773 377.049 339.773L377.047 339.767C376.648 339.867 376.181 339.885 375.993 339.499C375.42 338.324 375.998 337.805 375.998 337.805C375.998 337.805 376.112 337.715 376.302 337.566L376.265 337.455C375.781 337.785 375.365 338.049 375.134 338.172C375.027 338.23 374.96 338.257 374.943 338.248C374.943 338.248 373.592 338.949 373.238 338.223C372.665 337.047 373.243 336.529 373.243 336.529C373.243 336.529 373.654 336.205 374.225 335.761C373.726 336.102 373.294 336.376 373.058 336.503C372.951 336.56 372.884 336.588 372.867 336.579C372.867 336.579 371.516 337.279 371.162 336.554C370.589 335.378 371.167 334.86 371.167 334.86C371.167 334.86 371.499 334.598 371.979 334.223C371.573 334.496 371.23 334.711 371.027 334.819C370.921 334.876 370.853 334.904 370.836 334.895C370.836 334.895 369.485 335.596 369.132 334.869C368.558 333.694 369.137 333.175 369.137 333.175C369.137 333.175 371.009 331.699 372.321 330.725C372.321 330.724 372.914 328.303 373.561 327.956C374.527 327.439 381.086 325.811 381.086 325.811L382.345 325.462Z" fill="#B97964"/>
<path d="M379.311 335.234C379.348 335.299 378.617 335.906 377.678 336.59C376.739 337.273 375.948 337.774 375.911 337.709C375.874 337.644 376.605 337.037 377.544 336.353C378.484 335.67 379.274 335.169 379.311 335.234Z" fill="#946150"/>
<path d="M377.886 333.108C377.93 333.169 376.879 334.015 375.538 334.997C374.197 335.98 373.073 336.727 373.028 336.666C372.984 336.605 374.034 335.76 375.377 334.777C376.718 333.794 377.841 333.047 377.886 333.108Z" fill="#946150"/>
<g opacity="0.78">
<path d="M376.247 331.078C376.291 331.139 375.24 331.985 373.899 332.967C372.558 333.95 371.434 334.697 371.389 334.637C371.345 334.576 372.396 333.73 373.738 332.747C375.079 331.764 376.203 331.017 376.247 331.078Z" fill="#946150"/>
</g>
<path d="M371.788 331.152C371.806 331.177 372.121 330.991 372.622 330.676C373.195 330.313 373.851 329.898 374.574 329.44C375.299 328.985 375.956 328.572 376.531 328.211C377.03 327.894 377.335 327.691 377.32 327.663C377.305 327.637 376.972 327.793 376.451 328.076C375.93 328.358 375.221 328.77 374.456 329.253C373.691 329.735 373.014 330.197 372.534 330.546C372.055 330.894 371.77 331.127 371.788 331.152Z" fill="#946150"/>
<path d="M123.514 250.267L118.86 267.289L101.862 244.337L105.864 304.52H130.132L137.208 304.861C137.208 304.861 136.159 295.375 135.727 290.019C135.645 289 135.294 283.034 133.572 277.41C129.951 265.593 123.514 250.267 123.514 250.267Z" fill="#FAFAFA"/>
<path d="M75.7897 241.969L89.0063 235.61L94.1894 229.449L101.522 237.071L120.963 304.356H87.624L83.3483 292.813L75.7897 248.229V241.969Z" fill="#1A3354"/>
<path d="M135.265 305.331L136.158 291.051L95.8838 284.227C95.8838 284.227 89.003 250.993 84.7648 245.547C80.8529 240.521 75.7843 241.986 75.7843 241.986C75.7843 241.986 71.1564 245.413 72.2553 257.466C72.831 263.778 75.1384 285.663 75.975 293.569C76.1753 295.465 76.8021 297.287 77.809 298.905C80.1131 302.609 84.1653 304.86 88.5268 304.86L135.265 305.331Z" fill="#1A3354"/>
<g opacity="0.2">
<path d="M90.0418 236.58C90.4233 240.782 91.2293 244.945 92.4426 248.987C93.4523 248.69 94.4619 248.394 95.4722 248.098C94.2282 249.878 94.0763 252.242 94.5682 254.358C95.06 256.473 96.129 258.403 97.1856 260.3C102.196 269.301 107.207 278.301 112.217 287.302L97.0643 252.899L97.4588 246.539L94.5416 245.916L90.0418 236.58Z" fill="black"/>
</g>
<g opacity="0.2">
<path d="M96.0161 283.829C94.1842 283.722 92.3209 284.266 90.8351 285.342C89.3492 286.417 88.2496 288.018 87.7796 289.791C87.6672 290.215 87.5915 290.677 87.7557 291.085C87.9199 291.492 88.4043 291.797 88.8076 291.622C89.1142 291.489 89.2634 291.148 89.3969 290.842C90.7124 287.838 93.3081 285.419 96.3983 284.318" fill="black"/>
</g>
<path d="M153.96 225.713C152.766 223.513 153.295 214.629 151.455 214.943C149.11 215.343 151.276 224.681 151.424 225.532C151.567 226.358 150.342 226.593 150.25 225.819C150.117 224.707 148.749 213.842 146.44 214.454C145.16 214.792 145.749 217.13 145.749 217.13C145.749 217.13 147.734 227.661 146.634 227.913C145.517 228.17 144.692 222.092 144.201 219.883C143.729 217.765 142.351 216.854 141.828 217.971C141.06 219.608 142.533 224.911 142.972 227.04C143.41 229.168 144.508 235.328 141.521 232.921C138.534 230.514 135.35 229.759 134.36 230.145C133.371 230.531 133.586 232.051 134.734 232.353C135.662 232.597 137.093 233.477 138.142 234.18C139.007 234.76 139.691 235.546 140.402 236.304C140.909 236.845 141.801 237.952 142.539 239.631C143.394 241.574 145.059 243.046 147.08 243.694L148.823 251.994L160.119 249.573L157.6 240.793C156.684 235.027 157.19 227.274 157.182 223.747C157.169 218.124 156.437 218.081 155.789 218.231C154.358 218.559 155.124 227.86 153.96 225.713Z" fill="#FFD1BD"/>
<path d="M154.276 233.261C154.291 233.314 153.652 233.429 152.774 233.961C151.906 234.48 150.818 235.497 150.226 236.972C150.064 237.367 149.962 237.771 149.886 238.159L149.849 238.351L149.689 238.256C148.601 237.615 147.532 237.3 146.763 237.151C145.991 236.999 145.515 236.984 145.516 236.944C145.515 236.917 145.996 236.869 146.791 236.975C147.582 237.078 148.692 237.368 149.821 238.017L149.623 238.115C149.698 237.705 149.805 237.279 149.974 236.866C150.282 236.098 150.735 235.444 151.214 234.927C151.701 234.413 152.22 234.041 152.681 233.787C153.141 233.527 153.552 233.407 153.83 233.325C154.114 233.264 154.273 233.243 154.276 233.261Z" fill="#CC8F75"/>
<path d="M155.779 241.161C155.817 241.218 154.703 241.953 153.143 242.434C151.585 242.924 150.251 242.952 150.25 242.884C150.242 242.801 151.539 242.653 153.062 242.173C154.587 241.703 155.739 241.089 155.779 241.161Z" fill="#CC8F75"/>
<path d="M114.884 232.988L123.514 250.266L118.86 267.289L106.469 254.194L94.2539 231.503L114.884 232.988Z" fill="#FFD1BD"/>
<path d="M123.009 234.609C123.009 234.609 135.275 238.97 135.275 239.78C135.275 239.78 135.276 239.784 135.276 239.785C137.442 241.486 144.657 258.928 146.952 262.226L153.514 271.892L148.011 250.412L160.119 246.85C160.119 246.85 170.458 271.836 171.715 277.394C172.971 282.952 171.52 287.361 171.52 287.361L171.453 287.304C170.571 289.995 168.869 292.152 166.917 293.404C161.783 296.696 156.991 297.315 152.086 293.691C149.305 291.636 146.131 289.16 143.223 286.844L142.461 304.881H135.775C135.775 303.868 135.978 291.508 135.978 291.508C135.978 291.508 134.559 286.848 133.952 282.593C133.344 278.338 123.383 250.419 123.383 250.419L115.65 235.528L115.47 230.019L123.009 234.609Z" fill="#1A3354"/>
<g opacity="0.2">
<path d="M158.312 285.718C158.77 285.758 159.03 286.358 158.83 286.771C158.63 287.185 158.113 287.375 157.659 287.308C157.204 287.241 156.806 286.967 156.467 286.657C155.424 285.702 154.808 284.368 154.383 283.02C153.347 279.738 153.297 276.237 153.257 272.796C154.219 277.276 155.924 281.595 158.282 285.524" fill="black"/>
</g>
<g opacity="0.2">
<path d="M143.415 287.321C145.49 284.022 146.16 280.168 145.888 276.28C145.522 271.037 142.973 266.243 141.071 261.344C142.166 266.495 142.79 271.61 143.782 276.563C143.782 276.563 143.252 283.924 143.24 287.193" fill="black"/>
</g>
<g opacity="0.2">
<path d="M134.956 284.035C134.424 276.189 133.889 268.324 132.502 260.584C131.113 252.843 128.418 244.822 124.602 237.946C125.59 241.054 128.634 247.583 128.634 247.583C128.634 247.583 133.032 270.759 134.938 282.433" fill="black"/>
</g>
<path d="M135.944 293.056L134.846 305.222L140.591 305.199C140.743 305.199 143.088 305.161 145.674 305.117C147.576 305.359 150.592 305.369 151.507 305.273C151.669 305.256 151.766 305.235 151.778 305.212C151.778 305.212 152.211 305.16 152.663 304.998C152.676 304.998 152.689 304.998 152.689 304.998L152.687 304.99C153.208 304.799 153.742 304.465 153.659 303.893C153.407 302.149 152.371 302.008 152.371 302.008C152.371 302.008 152.174 301.994 151.85 301.972L151.808 301.82C152.597 301.822 153.26 301.8 153.612 301.763C153.774 301.746 153.87 301.726 153.882 301.702C153.882 301.702 155.919 301.461 155.763 300.383C155.511 298.639 154.474 298.498 154.474 298.498C154.474 298.498 153.771 298.449 152.798 298.386C153.612 298.389 154.302 298.368 154.662 298.329C154.824 298.312 154.92 298.292 154.932 298.269C154.932 298.269 156.968 298.027 156.813 296.95C156.562 295.205 155.525 295.065 155.525 295.065C155.525 295.065 154.957 295.025 154.138 294.971C154.797 294.967 155.342 294.947 155.649 294.914C155.812 294.897 155.908 294.877 155.92 294.854C155.92 294.854 157.957 294.612 157.801 293.534C157.55 291.789 156.512 291.65 156.512 291.65C156.512 291.65 153.307 291.421 151.106 291.33C151.105 291.328 148.61 289.079 147.626 289.183C146.157 289.338 137.613 292.492 137.613 292.492L135.944 293.056Z" fill="#FFD1BD"/>
<path d="M146.726 301.651C146.734 301.752 148.009 301.875 149.574 301.925C151.138 301.976 152.399 301.935 152.391 301.835C152.383 301.734 151.108 301.611 149.544 301.561C147.979 301.51 146.718 301.551 146.726 301.651Z" fill="#CC8F75"/>
<path d="M146.707 298.202C146.704 298.303 148.516 298.45 150.756 298.529C152.996 298.609 154.814 298.591 154.818 298.489C154.822 298.388 153.009 298.24 150.769 298.161C148.529 298.082 146.71 298.1 146.707 298.202Z" fill="#CC8F75"/>
<g opacity="0.78">
<path d="M146.997 294.697C146.993 294.799 148.806 294.946 151.045 295.025C153.285 295.104 155.104 295.086 155.108 294.985C155.111 294.883 153.299 294.736 151.058 294.657C148.819 294.577 147 294.595 146.997 294.697Z" fill="#CC8F75"/>
</g>
<path d="M152.024 291.402C152.024 291.444 151.53 291.475 150.733 291.503C149.82 291.533 148.775 291.567 147.621 291.605C146.468 291.646 145.423 291.684 144.509 291.717C143.712 291.742 143.218 291.746 143.214 291.704C143.211 291.663 143.7 291.585 144.495 291.505C145.29 291.426 146.392 291.347 147.611 291.306C148.829 291.264 149.933 291.267 150.733 291.292C151.531 291.317 152.025 291.361 152.024 291.402Z" fill="#CC8F75"/>
<path d="M125.453 202.78C133.887 184.232 112.116 177.122 102.881 178.004C92.5934 180.91 88.206 186.029 86.5131 192.909C88.3238 200.047 86.6077 207.409 89.3055 213.965C90.636 217.197 91.3242 220.319 94.7959 220.723" fill="#263238"/>
<path d="M115.379 248.623C115.525 239.761 115.628 227.587 115.631 227.637C115.631 227.637 123.249 226.372 124.827 216.434C125.612 211.491 125.363 203.387 124.946 196.763C124.57 190.8 120.619 183.484 114.679 184.113L96.1269 188.802C94.3223 188.992 92.9631 190.533 92.9992 192.347L94.2956 231.521" fill="#FFD1BD"/>
<path d="M88.3635 223.829C88.5129 220.643 87.4623 206.797 86.5908 202.357L93.654 202.778V213.373C93.8614 214.058 96.7328 217.564 96.7328 217.564L100.128 226.166C100.128 226.166 103.894 235.285 105.222 238.729C106.549 242.173 85.4382 241.381 85.4382 241.381C85.8532 239.265 86.7702 234.684 87.1187 233.29C87.5544 231.547 88.1768 227.813 88.3635 223.829Z" fill="#263238"/>
<path d="M115.648 227.678C115.648 227.678 108.961 228.109 102.337 224.127C102.337 224.127 105.701 231.041 115.648 230.111V227.678Z" fill="#CC8F75"/>
<path d="M94.8961 204.886C94.751 204.816 89.5761 202.528 89.5155 208.478C89.4548 214.428 95.4418 213.262 95.4534 213.092C95.4657 212.921 94.8961 204.886 94.8961 204.886Z" fill="#FFD1BD"/>
<path d="M93.6587 210.819C93.6328 210.799 93.5545 210.891 93.378 210.969C93.2063 211.045 92.912 211.096 92.6034 210.977C91.9773 210.74 91.4582 209.736 91.4398 208.663C91.4303 208.122 91.5488 207.607 91.745 207.182C91.931 206.749 92.2158 206.448 92.5326 206.395C92.848 206.325 93.0701 206.517 93.1416 206.685C93.2193 206.852 93.1804 206.971 93.2118 206.981C93.2281 206.996 93.3405 206.883 93.2949 206.636C93.2717 206.517 93.2029 206.376 93.0646 206.261C92.9229 206.143 92.7138 206.082 92.493 206.103C92.0339 206.131 91.6169 206.548 91.401 207.015C91.1598 207.484 91.014 208.061 91.0249 208.67C91.0508 209.869 91.653 210.998 92.5108 211.255C92.9284 211.368 93.2785 211.246 93.4604 211.107C93.6471 210.963 93.6798 210.83 93.6587 210.819Z" fill="#CC8F75"/>
<path d="M100.77 183.639C101.845 185.257 102.935 186.905 103.491 188.766C104.048 190.627 104.001 192.766 102.908 194.372C101.862 195.91 100.066 196.716 98.4339 197.609C96.8022 198.502 95.127 199.725 94.7216 201.541C94.5949 202.109 94.8374 204.092 94.411 204.488C93.8258 205.031 92.7984 204.697 92.3535 204.034C91.9093 203.37 91.6212 201.189 91.6096 200.391C91.5748 197.915 91.5401 195.439 91.5053 192.962C91.476 190.865 91.504 188.692 92.4128 186.801C93.6834 184.158 96.3171 183.312 100.16 183.5" fill="#263238"/>
<path d="M125.17 198.542C124.84 196.036 123.93 193.576 122.35 191.603C120.77 189.629 118.493 188.172 115.994 187.796C113.487 187.418 110.956 188.113 108.425 188.257C105.894 188.401 103.011 187.781 101.69 185.617C101.278 184.943 101.083 183.998 101.61 183.408C101.809 183.186 102.084 183.048 102.353 182.921C105.711 181.338 109.516 180.623 113.188 181.168C116.859 181.713 120.371 183.568 122.678 186.476C124.984 189.384 125.991 193.352 125.084 196.951" fill="#263238"/>
<path d="M126.684 194.81C126.696 194.813 126.736 194.702 126.802 194.486C126.872 194.272 126.946 193.945 127.003 193.518C127.116 192.671 127.131 191.388 126.663 189.908C126.207 188.44 125.254 186.77 123.675 185.45C122.118 184.119 120.007 183.14 117.681 182.754C115.348 182.365 113.075 182.593 111.1 183.05C110.111 183.283 109.187 183.568 108.343 183.882C107.494 184.193 106.736 184.538 106.01 184.732C104.546 185.034 103.294 185.218 102.477 185.047C101.644 184.88 101.351 184.438 101.324 184.48C101.318 184.484 101.383 184.587 101.553 184.74C101.72 184.897 102.024 185.072 102.447 185.181C103.311 185.4 104.558 185.254 106.073 184.975C106.828 184.789 107.603 184.453 108.442 184.16C109.282 183.861 110.197 183.591 111.173 183.37C113.12 182.937 115.349 182.726 117.622 183.104C119.889 183.48 121.944 184.423 123.464 185.7C125.004 186.966 125.948 188.565 126.424 189.986C126.909 191.416 126.935 192.667 126.866 193.504C126.791 194.347 126.649 194.801 126.684 194.81Z" fill="#455A64"/>
<path d="M115.69 179.179C115.693 179.158 115.472 179.103 115.065 179.058C114.658 179.01 114.061 178.99 113.328 179.056C111.873 179.182 109.822 179.752 108.041 181.17C107.16 181.873 106.425 182.632 105.644 183.16C104.882 183.695 104.04 183.931 103.347 184.086C102.647 184.233 102.063 184.253 101.67 184.201C101.275 184.152 101.074 184.047 101.059 184.075C101.049 184.088 101.236 184.242 101.645 184.337C102.052 184.435 102.662 184.453 103.392 184.333C104.114 184.205 104.994 183.99 105.826 183.432C106.652 182.893 107.405 182.129 108.26 181.45C109.977 180.082 111.941 179.493 113.356 179.306C114.784 179.114 115.686 179.246 115.69 179.179Z" fill="#455A64"/>
<path d="M85.6021 197.427C85.6341 197.442 85.7397 197.191 86.0272 196.81C86.3222 196.439 86.8298 195.948 87.6071 195.595C88.3749 195.236 89.3866 194.997 90.512 195.013C91.643 195.026 92.8774 195.279 94.1841 195.521C95.4874 195.77 96.7804 195.921 97.9474 195.806C99.1124 195.702 100.135 195.416 100.948 195.082C101.765 194.753 102.374 194.377 102.776 194.099C103.18 193.819 103.374 193.629 103.363 193.614C103.325 193.554 102.475 194.248 100.858 194.848C100.052 195.145 99.0518 195.397 97.9215 195.48C96.7906 195.573 95.548 195.42 94.2474 195.172C92.9476 194.931 91.6893 194.681 90.5141 194.685C89.3375 194.688 88.2884 194.963 87.4967 195.37C86.6963 195.769 86.1853 196.319 85.9148 196.73C85.7868 196.943 85.6955 197.112 85.6553 197.237C85.6096 197.357 85.5912 197.423 85.6021 197.427Z" fill="#455A64"/>
<path d="M86.6794 192.655C86.708 192.669 86.8116 192.422 87.1038 192.058C87.3988 191.701 87.918 191.245 88.6912 190.938C89.4597 190.621 90.4618 190.509 91.5628 190.633C92.6664 190.741 93.8545 191.075 95.1421 191.315C96.4236 191.556 97.731 191.617 98.8448 191.257C99.9567 190.917 100.823 190.286 101.419 189.662C102.024 189.036 102.365 188.409 102.552 187.967C102.645 187.745 102.704 187.568 102.731 187.444C102.764 187.321 102.774 187.256 102.763 187.252C102.69 187.211 102.448 188.305 101.242 189.485C100.646 190.062 99.8054 190.64 98.7508 190.945C97.7017 191.266 96.4652 191.203 95.2048 190.967C93.9418 190.732 92.7352 190.403 91.5934 190.308C90.457 190.197 89.3909 190.342 88.5931 190.708C87.7899 191.062 87.2653 191.577 86.9928 191.976C86.723 192.383 86.6637 192.651 86.6794 192.655Z" fill="#455A64"/>
<path d="M119.01 206.041C119.01 206.041 120.856 209.104 122.798 210.857C122.798 210.857 121.855 212.555 119.69 212.398L119.01 206.041Z" fill="#D58745"/>
<path d="M111.566 205.457C111.644 206.447 111.17 207.293 110.51 207.344C109.851 207.395 109.252 206.635 109.174 205.644C109.096 204.654 109.568 203.809 110.229 203.758C110.889 203.706 111.488 204.467 111.566 205.457Z" fill="#2E353A"/>
<path d="M109.958 203.827L112.046 202.813C112.046 202.813 111.115 204.71 109.958 203.827Z" fill="#2E353A"/>
<path d="M123.864 204.287C123.942 205.277 123.469 206.123 122.808 206.174C122.147 206.225 121.55 205.465 121.472 204.474C121.394 203.484 121.866 202.639 122.527 202.588C123.187 202.537 123.786 203.297 123.864 204.287Z" fill="#2E353A"/>
<path d="M122.256 202.657L124.344 201.644C124.344 201.644 123.413 203.541 122.256 202.657Z" fill="#2E353A"/>
<path d="M110.987 197.769C110.987 197.769 107.569 197.514 105.85 199.881" stroke="#2E353A" stroke-width="0.7247" stroke-miterlimit="10" stroke-linecap="round" stroke-linejoin="round"/>
<path d="M119.737 196.779C119.737 196.779 121.826 195.873 124.603 197.508" stroke="#2E353A" stroke-width="0.7247" stroke-miterlimit="10" stroke-linecap="round" stroke-linejoin="round"/>
<path d="M118.189 217.244C117.571 218.738 117.01 221.514 117.01 221.514C116.749 221.509 116.488 221.503 116.229 221.484C112.695 221.321 111.109 220.078 110.422 218.749C110.049 218.021 109.954 217.258 109.958 216.64C109.955 215.925 110.117 215.414 110.117 215.414C111.939 216.62 115.221 217.025 116.985 217.169C117.724 217.237 118.189 217.244 118.189 217.244Z" fill="#2E353A"/>
<path d="M116.986 217.169L116.606 218.419C113.278 218.257 110.955 217.696 109.96 216.64C109.957 215.925 110.118 215.414 110.118 215.414C111.94 216.621 115.223 217.025 116.986 217.169Z" fill="white"/>
<path d="M116.23 221.484C112.696 221.321 111.11 220.078 110.423 218.749C111.625 218.851 113.064 219.108 114.312 219.708C115.268 220.163 115.853 220.825 116.23 221.484Z" fill="#DE5753"/>
<path d="M125.526 189.327C116.064 158.981 73.4854 176.992 86.7758 203.549C101.516 197.28 118.752 187.087 125.526 189.327Z" fill="#3665A3"/>
<path d="M125.126 186.172C154.964 190.188 128.587 196.603 100.577 197.424C108.605 191.563 116.294 187.513 125.126 186.172Z" fill="#2A5081"/>
<path d="M60.8398 304.462H239.158C239.158 308.328 236.024 311.52 232.158 311.52H67.8398C63.9738 311.52 60.8398 308.328 60.8398 304.462Z" fill="#8BACD6"/>
<rect x="224.171" y="310.563" width="22.416" height="7.05835" transform="rotate(90 224.171 310.563)" fill="#8BACD6"/>
<rect x="82.8483" y="310.563" width="22.416" height="7.05835" transform="rotate(90 82.8483 310.563)" fill="#8BACD6"/>
</svg>
