<svg width="337" height="125" viewBox="0 0 337 125" fill="none" xmlns="http://www.w3.org/2000/svg">
<path d="M337 120.082C334.515 121.636 331.461 122.826 327.837 123.655C324.316 124.483 320.537 124.897 316.499 124.897C305.523 124.897 297.085 122.205 291.183 116.821C285.385 111.437 282.486 103.412 282.486 92.7477V20.5278H311.995V40.6654H331.098V62.7197H311.995V92.437C311.995 95.5433 312.771 97.9247 314.324 99.5814C315.878 101.238 318 102.066 320.692 102.066C324.109 102.066 327.112 101.186 329.7 99.426L337 120.082Z" fill="#1A3354"/>
<path d="M196.818 124.928L181.753 102.874L165.601 124.928H133.607L165.601 82.8389L134.539 40.7495H167.775L182.685 62.0272L198.216 40.7495H229.434L198.372 81.7518L230.521 124.928H196.818Z" fill="#1A3354"/>
<path d="M94.7049 40.7497H124.214V124.929H94.7049V40.7497ZM109.459 31.431C104.075 31.431 99.7266 29.9297 96.4133 26.927C93.1 23.9243 91.4434 20.1968 91.4434 15.7446C91.4434 11.2923 93.1 7.56483 96.4133 4.56214C99.7266 1.55945 104.075 0.0581055 109.459 0.0581055C114.844 0.0581055 119.192 1.50768 122.506 4.40683C125.819 7.20244 127.476 10.8264 127.476 15.2786C127.476 19.938 125.819 23.8208 122.506 26.927C119.192 29.9297 114.844 31.431 109.459 31.431Z" fill="#1A3354"/>
<path d="M54.9803 39.5072C47.1112 39.5072 41.1058 41.2157 36.9641 44.6325C32.8225 48.0494 30.7517 53.2264 30.7517 60.1637V63.8911H72.5305V87.6538H30.7517V124.929H0V60.6296C0 45.8232 4.60757 34.3819 13.8227 26.3057C23.0379 18.126 35.9805 14.0361 52.6506 14.0361C58.9666 14.0361 64.8685 14.6574 70.3561 15.8999C75.9473 17.1424 80.7102 18.9026 84.6448 21.1805L75.6367 44.7878C69.6313 41.2674 62.7459 39.5072 54.9803 39.5072Z" fill="#1A3354"/>
<path d="M249.081 22.5127L249.018 22.5125L243.504 13.096L247.892 0.0133273L259.76 0.0488041L264.351 13.1583L258.876 22.542L259.028 50.7828L249.232 50.7535L249.081 22.5127Z" fill="#8AF441"/>
<path d="M255.738 22.5328L261.213 13.1491L256.622 0.0396244L259.762 0.0490098L264.353 13.1585L258.878 22.5422L259.03 50.783L255.89 50.7736L255.738 22.5328Z" fill="#8AF441"/>
<path d="M263.939 118.096V59.9186C263.939 57.1143 261.836 54.6669 258.778 53.6472C257.504 53.2393 257.313 51.8626 258.396 51.1488L262.665 48.2934C263.811 47.5286 264.448 46.4069 264.448 45.2342V42.5318C264.448 41.5121 263.429 40.6963 262.155 40.6963H267.252C268.526 40.6963 269.545 41.5121 269.545 42.5318V45.2342C269.545 46.4069 268.908 47.5286 267.761 48.2934L263.493 51.1488C262.473 51.8626 262.665 53.1883 263.875 53.6472C266.933 54.7179 269.036 57.1143 269.036 59.9186V118.096C269.036 121.869 265.213 124.928 260.498 124.928H255.402C260.116 124.979 263.939 121.869 263.939 118.096Z" fill="#1A3354"/>
<path fill-rule="evenodd" clip-rule="evenodd" d="M239.445 118.096V59.9186C239.445 57.1143 241.399 54.6669 244.242 53.6472C245.427 53.2393 245.604 51.8626 244.597 51.1488L240.629 48.2934C239.563 47.5286 238.971 46.4069 238.971 45.2342V42.5318C238.971 41.5121 239.919 40.6963 241.103 40.6963H266.214C267.399 40.6963 268.346 41.5121 268.346 42.5318V45.2342C268.346 46.4069 267.754 47.5286 266.688 48.2934L262.72 51.1488C261.773 51.8626 261.95 53.1883 263.075 53.6472C265.918 54.7179 267.873 57.1143 267.873 59.9186V118.096C267.873 121.869 264.319 124.928 259.937 124.928H247.263C242.998 124.979 239.445 121.869 239.445 118.096ZM250.836 114.159V62.1017C250.836 60.5723 249.454 59.3705 247.696 59.3705C245.938 59.3705 244.557 60.5723 244.557 62.1017V114.159C244.557 115.688 245.938 116.89 247.696 116.89C249.454 116.89 250.836 115.634 250.836 114.159ZM262.452 62.1017V114.159C262.452 115.634 261.071 116.89 259.313 116.89C257.555 116.89 256.174 115.688 256.174 114.159V62.1017C256.174 60.5723 257.555 59.3705 259.313 59.3705C261.071 59.3705 262.452 60.5723 262.452 62.1017Z" fill="#1A3354"/>
</svg>
